<svg width="424" height="56" viewBox="0 0 424 56" fill="none" xmlns="http://www.w3.org/2000/svg">
<path d="M284.133 55.0952L268.581 0.743103H281.134L290.13 38.5083H290.582L300.507 0.743103H311.256L321.155 38.5879H321.632L330.629 0.743103H343.182L327.63 55.0952H316.431L306.08 19.5593H305.656L295.332 55.0952H284.133Z" fill="url(#paint0_linear_1_48)"/>
<path d="M269.166 27.9192C269.166 33.8462 268.042 38.8887 265.795 43.0465C263.566 47.2043 260.523 50.3801 256.666 52.574C252.827 54.7502 248.51 55.8383 243.715 55.8383C238.885 55.8383 234.55 54.7414 230.711 52.5475C226.871 50.3536 223.837 47.1777 221.608 43.0199C219.378 38.8621 218.264 33.8285 218.264 27.9192C218.264 21.9921 219.378 16.9497 221.608 12.7919C223.837 8.63406 226.871 5.46706 230.711 3.29085C234.55 1.09695 238.885 0 243.715 0C248.51 0 252.827 1.09695 256.666 3.29085C260.523 5.46706 263.566 8.63406 265.795 12.7919C268.042 16.9497 269.166 21.9921 269.166 27.9192ZM257.515 27.9192C257.515 24.0798 256.94 20.8421 255.79 18.2058C254.658 15.5696 253.057 13.5703 250.987 12.208C248.916 10.8457 246.493 10.1645 243.715 10.1645C240.937 10.1645 238.513 10.8457 236.443 12.208C234.373 13.5703 232.763 15.5696 231.613 18.2058C230.481 20.8421 229.914 24.0798 229.914 27.9192C229.914 31.7585 230.481 34.9963 231.613 37.6325C232.763 40.2687 234.373 42.268 236.443 43.6303C238.513 44.9927 240.937 45.6738 243.715 45.6738C246.493 45.6738 248.916 44.9927 250.987 43.6303C253.057 42.268 254.658 40.2687 255.79 37.6325C256.94 34.9963 257.515 31.7585 257.515 27.9192Z" fill="url(#paint1_linear_1_48)"/>
<path d="M213.462 0.743103V55.0952H203.536L179.89 20.8863H179.491V55.0952H168V0.743103H178.085L201.545 34.9255H202.023V0.743103H213.462Z" fill="url(#paint2_linear_1_48)"/>
<path d="M128.421 48.096V48.5226H128.847H157H157.427V48.096V43.8805V43.4539H157H134.851V30.9706H155.201H155.628V30.544V26.3285V25.9019H155.201H134.851V13.4952H156.64H157.067V13.0687V8.8531V8.42655H156.64H128.847H128.421V8.8531V48.096Z" fill="black" stroke="black" stroke-width="0.853107"/>
<path d="M88.3249 13.0687V13.4952H88.7514H102.99V48.096V48.5226H103.416H109.064H109.49V48.096V13.4952H123.729H124.155V13.0687V8.8531V8.42655H123.729H88.7514H88.3249V8.8531V13.0687Z" fill="black" stroke="black" stroke-width="0.853107"/>
<path d="M73.9784 14.7203L73.9794 14.7209C76.1837 15.9001 77.9304 17.637 79.2215 19.9442L79.2225 19.946C80.5217 22.2415 81.1829 25.0777 81.1829 28.4746C81.1829 31.8715 80.5217 34.7076 79.2225 37.0032L79.2215 37.0049C77.9304 39.3122 76.1837 41.0491 73.9794 42.2282L73.9784 42.2288C71.7812 43.412 69.3151 44.0073 66.5706 44.0073C63.8266 44.0073 61.3528 43.4122 59.1402 42.2288C56.9507 41.0498 55.2032 39.3124 53.8965 37.0039C52.6121 34.7082 51.9583 31.8717 51.9583 28.4746C51.9583 25.0774 52.6122 22.2408 53.8966 19.9451C55.2032 17.6368 56.9506 15.8996 59.1398 14.7205C61.3525 13.537 63.8264 12.9419 66.5706 12.9419C69.3151 12.9419 71.7812 13.5372 73.9784 14.7203ZM84.7647 39.5868C86.5753 36.4485 87.4717 32.7391 87.4717 28.4746C87.4717 24.2101 86.5753 20.5006 84.7647 17.3624C82.959 14.2325 80.4781 11.8145 77.3274 10.1157C74.1772 8.41724 70.5879 7.57345 66.5706 7.57345C62.5533 7.57345 58.964 8.41724 55.8138 10.1157C52.6632 11.8145 50.1822 14.2325 48.3765 17.3624C46.566 20.5006 45.6695 24.2101 45.6695 28.4746C45.6695 32.7391 46.566 36.4485 48.3765 39.5868C50.1822 42.7167 52.6632 45.1346 55.8138 46.8334C58.964 48.5319 62.5533 49.3757 66.5706 49.3757C70.5879 49.3757 74.1772 48.5319 77.3274 46.8334C80.4781 45.1346 82.959 42.7167 84.7647 39.5868Z" fill="black" stroke="black" stroke-width="0.853107"/>
<path d="M33.7743 8V7.57345H34.2009H40.1242H40.5508L40.5508 8L40.5509 48.096L40.5509 48.5226H40.1243H34.292H34.071L33.9435 48.342L5.65148 8.24592L5.17698 7.57345H6H11.9234H12.1326L12.2607 7.73885L33.7743 35.523V8Z" fill="black" stroke="black" stroke-width="0.853107"/>
<rect x="349" y="1" width="63.3457" height="16.8922" rx="2.88462" fill="url(#paint3_linear_1_48)"/>
<rect x="349" y="20.0037" width="52.7881" height="16.8922" rx="2.88462" fill="url(#paint4_linear_1_48)"/>
<rect x="349" y="39.0075" width="75" height="16.8922" rx="2.88462" fill="url(#paint5_linear_1_48)"/>
<path d="M0.5 1H158V4H2.50001L0.5 1Z" fill="black"/>
<path d="M35 52H158V55H36.9839L35 52Z" fill="black"/>
<defs>
<linearGradient id="paint0_linear_1_48" x1="305.881" y1="0.743103" x2="305.881" y2="55.0952" gradientUnits="userSpaceOnUse">
<stop stop-color="#00C968"/>
<stop offset="1" stop-color="#08A75B" stop-opacity="0.9"/>
</linearGradient>
<linearGradient id="paint1_linear_1_48" x1="243.715" y1="0" x2="243.715" y2="55.8383" gradientUnits="userSpaceOnUse">
<stop stop-color="#00C968"/>
<stop offset="1" stop-color="#08A75B" stop-opacity="0.9"/>
</linearGradient>
<linearGradient id="paint2_linear_1_48" x1="190.731" y1="0.743103" x2="190.731" y2="55.0952" gradientUnits="userSpaceOnUse">
<stop stop-color="#00C968"/>
<stop offset="1" stop-color="#08A75B" stop-opacity="0.9"/>
</linearGradient>
<linearGradient id="paint3_linear_1_48" x1="380.673" y1="1" x2="380.673" y2="17.8922" gradientUnits="userSpaceOnUse">
<stop stop-color="#00C968"/>
<stop offset="1" stop-color="#08A75B" stop-opacity="0.9"/>
</linearGradient>
<linearGradient id="paint4_linear_1_48" x1="375.394" y1="20.0037" x2="375.394" y2="36.8959" gradientUnits="userSpaceOnUse">
<stop stop-color="#00C968"/>
<stop offset="1" stop-color="#08A75B" stop-opacity="0.9"/>
</linearGradient>
<linearGradient id="paint5_linear_1_48" x1="386.5" y1="39.0075" x2="386.5" y2="55.8997" gradientUnits="userSpaceOnUse">
<stop stop-color="#00C968"/>
<stop offset="1" stop-color="#08A75B" stop-opacity="0.9"/>
</linearGradient>
</defs>
</svg>
